<svg width="18" height="20" viewBox="0 0 18 20" fill="none" xmlns="http://www.w3.org/2000/svg">
<path d="M17.674 19.3426L16.1539 4.86709C16.122 4.56405 15.8666 4.33395 15.5619 4.33395H12.7048V3.68255C12.7048 1.65207 11.0528 0 9.02229 0C6.99166 0 5.33959 1.65207 5.33959 3.68255V4.33395H2.48254C2.17782 4.33395 1.92239 4.56405 1.8905 4.86709L0.370419 19.3426C0.352872 19.5103 0.407346 19.6777 0.520108 19.8031C0.633023 19.9284 0.79385 20 0.962459 20H17.0818C17.2506 20 17.4114 19.9284 17.5242 19.8031C17.6372 19.6777 17.6916 19.5103 17.674 19.3426ZM6.53008 3.68255C6.53008 2.3085 7.64809 1.19049 9.02229 1.19049C10.3963 1.19049 11.5144 2.3085 11.5144 3.68255V4.33395H6.53008V3.68255ZM1.62347 18.8095L3.01858 5.52443H5.33959V6.83623C5.33959 7.1649 5.60616 7.43147 5.93483 7.43147C6.26351 7.43147 6.53008 7.1649 6.53008 6.83623V5.52443H11.5144V6.83623C11.5144 7.1649 11.7809 7.43147 12.1096 7.43147C12.4383 7.43147 12.7048 7.1649 12.7048 6.83623V5.52443H15.0259L16.421 18.8095H1.62347Z" fill="white"/>
</svg>
